<?xml version="1.0" encoding="UTF-8"?>
<svg width="34px" height="22px" viewBox="0 0 34 22" version="1.1" xmlns="http://www.w3.org/2000/svg" xmlns:xlink="http://www.w3.org/1999/xlink">
    <!-- Generator: Sketch 50.2 (55047) - http://www.bohemiancoding.com/sketch -->
    <title>Payform/OneField/icon/JCB</title>
    <desc>Created with Sketch.</desc>
    <defs></defs>
    <g id="Payform/OneField/icon/JCB" stroke="none" stroke-width="1" fill="none" fill-rule="evenodd">
        <g id="Group" fill="#FFFFFF" fill-opacity="0">
            <rect id="Rectangle-7" x="0" y="0" width="34" height="22"></rect>
        </g>
        <g id="Group-8" transform="translate(5.000000, 4.000000)">
            <path d="M7.00659,4.2691 C6.23547,4.27227 5.46429,4.27197 4.69317,4.27301 C4.67724,4.27301 4.66137,4.27631 4.63275,4.27948 C4.63275,4.33289 4.63275,4.37567 4.63275,4.4187 C4.63269,5.47229 4.63586,6.526 4.63104,7.57959 C4.62927,7.98846 4.49914,8.35046 4.17785,8.62311 C3.90527,8.85437 3.57946,8.94861 3.22967,8.96021 C2.44006,8.98676 1.69885,8.7829 0.98126,8.47327 C0.90515,8.44037 0.67047,8.30567 0.67047,8.23731 C0.67218,5.94721 0.67004,5.65717 0.67255,3.36701 C0.67408,1.99177 1.57569,0.86628 2.91669,0.57191 C3.1352,0.524 3.36457,0.5077 3.58899,0.50727 C4.8985,0.50501 6.20819,0.51221 7.51764,0.51472 C7.59515,0.5149 7.64575,0.51557 7.64575,0.62239 C7.64288,5.32228 7.64538,6.02211 7.64038,10.722 C7.63959,11.52327 7.32214,12.1996 6.73846,12.74489 C6.19799,13.24977 5.54834,13.49562 4.81066,13.49831 C3.47454,13.50319 0.72375,13.50228 0.67828,13.50228 C0.67828,11.51449 0.67828,11.53512 0.67828,9.54439 C0.84637,9.58052 1.01269,9.61818 1.17968,9.65138 C1.73064,9.76051 2.28594,9.84498 2.84759,9.86293 C3.32849,9.87813 3.81127,9.88521 4.29138,9.86079 C4.88745,9.83058 5.47015,9.71669 6.00635,9.43422 C6.6919,9.07289 7.06128,8.5005 7.07489,7.72859 C7.09436,6.60878 7.08679,5.48872 7.09125,4.36873 C7.09149,4.30969 7.08569,4.26886 7.00659,4.2691 Z" id="Path" fill="#1A6BC8"></path>
            <path d="M14.63409,8.37 C14.09869,8.63288 13.54077,8.82831 12.94885,8.91352 C12.36828,8.99702 11.78979,9.01276 11.23248,8.78687 C10.58917,8.52601 10.23785,8.03699 10.14264,7.35761 C10.09357,7.00837 10.10675,6.66071 10.21234,6.32221 C10.43194,5.61909 10.93909,5.24177 11.63745,5.09919 C12.29669,4.96449 12.94824,5.04566 13.5838,5.23377 C13.9314,5.33668 14.26398,5.49079 14.60297,5.62238 C14.63587,5.63508 14.66736,5.65149 14.70667,5.6695 C14.70948,5.63831 14.71259,5.61896 14.71259,5.5998 C14.71296,5.2508 14.71198,4.90168 14.71369,4.5528 C14.71406,4.49549 14.70276,4.46637 14.63746,4.45112 C13.65467,4.22108 12.6609,4.0904 11.64985,4.12037 C10.91718,4.1421 10.19337,4.22321 9.49928,4.47846 C9.1479,4.60767 8.82185,4.78321 8.52028,5.03028 C8.51637,4.99409 8.51149,4.97022 8.51149,4.94642 C8.51118,3.74647 8.50649,4.5467 8.51247,3.34687 C8.51931,1.9831 9.42336,0.86201 10.75338,0.56928 C10.9656,0.52247 11.18789,0.5044 11.4056,0.50336 C12.73159,0.49732 14.05782,0.50086 15.38399,0.49732 C15.48281,0.49689 15.50307,0.5282 15.50307,0.6211 C15.50087,5.27747 15.50148,5.93391 15.50081,10.5904 C15.50069,11.4156 15.22579,12.13227 14.6285,12.70991 C14.16018,13.16279 13.59707,13.42439 12.9457,13.48561 C12.8171,13.49769 12.68728,13.50209 12.55807,13.50209 C11.25192,13.50331 9.9457,13.50288 8.63949,13.50288 C8.60049,13.50288 8.56149,13.50288 8.51699,13.50288 C8.51699,11.32667 8.51699,11.1609 8.51699,8.97969 C8.60561,9.0442 8.68349,9.10512 8.7654,9.15962 C9.25521,9.4853 9.80281,9.65852 10.37557,9.76301 C11.16201,9.9062 11.9554,9.9145 12.74898,9.85829 C13.40767,9.81178 14.05678,9.69447 14.70558,9.53767 C14.70558,9.14289 14.70558,8.74891 14.70558,8.3451 C14.68018,8.3537 14.65588,8.35931 14.63409,8.37 Z" id="Path" fill="#F53B4A"></path>
            <path d="M21.41058,13.3493 C21.12207,13.4461 20.82556,13.49816 20.52227,13.49878 C19.16967,13.50116 17.81689,13.50006 16.46429,13.50018 C16.43164,13.50018 16.39917,13.50018 16.35784,13.50018 C16.35576,13.45556 16.35265,13.4201 16.35265,13.38446 C16.35234,11.53998 16.35314,11.6955 16.35033,9.85089 C16.35027,9.75421 16.37719,9.7287 16.47295,9.72906 C17.85888,9.73376 19.24468,9.73431 20.63054,9.73657 C20.98479,9.73718 21.33336,9.70599 21.66295,9.56378 C22.06914,9.38867 22.37407,9.11456 22.50444,8.67871 C22.66154,8.15338 22.47404,7.62176 22.02318,7.29919 C21.72368,7.08496 21.38408,6.984 21.02263,6.94537 C21.00023,6.94311 20.97807,6.94018 20.95336,6.92169 C21.04278,6.89911 21.13335,6.8808 21.22118,6.85309 C21.67717,6.70911 22.03179,6.44446 22.16735,5.96808 C22.35046,5.32477 22.07995,4.68909 21.33166,4.41516 C21.02526,4.30298 20.70617,4.2727 20.38269,4.27276 C19.08319,4.27307 17.78369,4.273 16.48425,4.27307 C16.44494,4.27307 16.40558,4.27307 16.35754,4.27307 C16.35565,4.22986 16.35266,4.19427 16.35266,4.15881 C16.35235,3.22821 16.35046,4.2976 16.35284,3.367 C16.35669,1.99438 17.25799,0.86749 18.59668,0.57305 C18.81519,0.52508 19.04425,0.5075 19.26856,0.50695 C20.57795,0.50365 21.8874,0.50976 23.19678,0.51275 C23.32544,0.51318 23.32587,0.51348 23.32587,0.64697 C23.32599,5.30316 23.31977,5.95941 23.32978,10.6156 C23.33258,11.92816 22.49646,12.9848 21.41058,13.3493 Z" id="Path" fill="#20AA4D"></path>
            <path d="M17.82678,7.3537 C18.34527,7.35339 18.86365,7.35138 19.38196,7.35419 C19.73779,7.35596 20.02075,7.56427 20.10895,7.88037 C20.24488,8.36749 19.92328,8.81946 19.40869,8.83368 C18.86749,8.84869 18.32544,8.8371 17.784,8.83679 C17.7746,8.83679 17.76526,8.83179 17.74726,8.82678 C17.74726,8.33636 17.74726,7.85199 17.74726,7.36139 C17.77606,7.35846 17.80145,7.35376 17.82678,7.3537 Z" id="Path" fill="#20AA4D"></path>
            <path d="M17.74725,6.48468 C17.74725,6.03339 17.74725,5.5929 17.74725,5.14539 C17.77557,5.14167 17.80066,5.1355 17.82599,5.1355 C18.3039,5.13519 18.78186,5.13208 19.25989,5.13739 C19.58838,5.14111 19.83264,5.3244 19.91736,5.61481 C20.04505,6.05377 19.75299,6.47669 19.297,6.48841 C18.8028,6.50111 18.30799,6.49299 17.81348,6.49348 C17.79425,6.49347 17.77509,6.48846 17.74725,6.48468 Z" id="Path" fill="#20AA4D"></path>
        </g>
    </g>
</svg>