<svg xmlns="http://www.w3.org/2000/svg" xmlns:xlink="http://www.w3.org/1999/xlink" width="48" height="38" viewBox="0 0 48 38">
    <defs>
        <path id="a" d="M9 18A9 9 0 1 1 9 0a9 9 0 0 1 0 18zm0-1A8 8 0 1 0 9 1a8 8 0 0 0 0 16zm.005-2.9c-.732 0-1.255-.478-1.255-1.146 0-.676.523-1.154 1.255-1.154.73 0 1.245.478 1.245 1.154 0 .668-.514 1.146-1.245 1.146zM9 4.2a1 1 0 0 1 1 1v4a1 1 0 0 1-2 0v-4a1 1 0 0 1 1-1z"/>
    </defs>
    <g fill="none" fill-rule="evenodd">
        <g transform="translate(15 10)">
            <mask id="b" fill="#fff">
                <use xlink:href="#a"/>
            </mask>
            <use fill="#FFF" fill-opacity="0" xlink:href="#a"/>
            <g fill="#f75f52" mask="url(#b)">
                <path d="M-15-10h48v38h-48z"/>
            </g>
        </g>
    </g>
</svg>
