<?xml version="1.0" encoding="UTF-8"?>
<svg width="48px" height="38px" viewBox="0 0 48 38" version="1.1" xmlns="http://www.w3.org/2000/svg" xmlns:xlink="http://www.w3.org/1999/xlink">
    <!-- Generator: Sketch 50.2 (55047) - http://www.bohemiancoding.com/sketch -->
    <title>icon/input/serch_2</title>
    <desc>Created with Sketch.</desc>
    <defs>
        <path d="M12.0253079,15.7324147 C8.68741128,18.7043002 3.56904246,18.5898577 0.368272016,15.3890873 C-2.95118446,12.0696308 -2.95118446,6.6877285 0.368272016,3.36827202 C3.6877285,0.0488155367 9.06963082,0.0488155367 12.3890873,3.36827202 C15.5898577,6.56904246 15.7043002,11.6874113 12.7324147,15.0253079 L16.631728,18.9246212 C16.8269901,19.1198833 16.8269901,19.4364658 16.631728,19.631728 C16.4364658,19.8269901 16.1198833,19.8269901 15.9246212,19.631728 L12.0253079,15.7324147 Z M11.6819805,14.6819805 C14.6109127,11.7530483 14.6109127,7.00431099 11.6819805,4.0753788 C8.75304833,1.14644661 4.00431099,1.14644661 1.0753788,4.0753788 C-1.85355339,7.00431099 -1.85355339,11.7530483 1.0753788,14.6819805 C4.00431099,17.6109127 8.75304833,17.6109127 11.6819805,14.6819805 Z" id="path-1"></path>
    </defs>
    <g id="icon/input/serch_2" stroke="none" stroke-width="1" fill="none" fill-rule="evenodd">
        <g id="icon/input/-none"></g>
        <g id="icon_attention" transform="translate(16.000000, 8.000000)">
            <mask id="mask-2" fill="white">
                <use xlink:href="#path-1"></use>
            </mask>
            <use id="Combined-Shape" fill-opacity="0" fill="#FFFFFF" xlink:href="#path-1"></use>
            <g id="color/black_80-%" mask="url(#mask-2)" fill="#000000" fill-opacity="0.8">
                <g transform="translate(-16.000000, -6.000000)" id="color">
                    <rect x="0" y="0" width="48" height="38"></rect>
                </g>
            </g>
        </g>
    </g>
</svg>
